<?xml version="1.0" standalone="no"?>
<!DOCTYPE svg PUBLIC "-//W3C//DTD SVG 20010904//EN" "http://www.w3.org/TR/2001/REC-SVG-20010904/DTD/svg10.dtd">
<svg xmlns="http://www.w3.org/2000/svg" viewBox="0 0 1024 352">
<g transform="translate(0.000000,1024.000000) scale(0.100000,-0.100000)" fill="#000000" stroke="none">
<path d="M4809 6635 c-66 -21 -138 -72 -176 -126 -55 -77 -63 -132 -63 -411 l0 -247 -274 -3 -273 -3 -69 -35 c-79 -41 -135 -106 -159 -184 -22 -73 -22 -739 0 -814 23 -78 82 -144 162 -184 l68 -33 297 -3 298 -3 0 234 c0 186 3 244 16 288 30 99 73 171 153 250 119 119 237 169 401 169 50 0 109 -7 141 -16 159 -47 298 -162 368 -306 53 -108 65 -187 59 -393 -4 -132 -9 -170 -26 -215 -51 -128 -148 -222 -270 -260 -60 -19 -94 -20 -479 -20 l-415 0 3 -152 c4 -143 6 -157 32 -210 30 -61 84 -116 146 -147 68 -35 162 -43 484 -39 284 3 305 5 358 26 79 32 132 81 171 160 l33 67 3 282 4 282 267 3 267 3 66 33 c79 39 129 93 158 169 19 50 20 78 20 423 0 353 -1 372 -21 427 -26 68 -97 143 -166 176 -45 20 -64 22 -320 25 l-271 3 -4 272 c-3 268 -3 273 -29 327 -37 80 -81 125 -157 162 l-67 33 -345 2 c-278 2 -354 -1 -391 -12z m459 -400 c73 -22 154 -99 182 -173 69 -181 -66 -381 -257 -383 -205 -3 -344 174 -288 366 13 46 28 70 74 116 84 84 176 107 289 74z"/>
<path d="M7611 5880 c-157 -33 -262 -91 -376 -205 -73 -72 -99 -107 -133 -175 -58 -117 -82 -218 -82 -349 0 -335 193 -610 495 -708 109 -35 288 -43 399 -18 165 36 335 151 425 286 23 34 41 65 41 69 0 4 -49 29 -110 55 l-110 47 -67 -70 c-110 -113 -235 -161 -384 -149 -128 11 -251 88 -325 203 -99 154 -106 381 -17 546 33 61 125 148 190 182 186 94 439 24 553 -153 l32 -48 121 50 c67 28 124 52 126 53 9 7 -110 162 -160 207 -132 120 -274 176 -459 182 -63 2 -135 0 -159 -5z"/>
<path d="M10163 5500 c-61 -13 -95 -33 -147 -91 l-46 -51 0 66 0 66 -130 0 -130 0 0 -530 0 -530 130 0 130 0 0 313 c0 189 4 327 11 350 14 50 73 115 126 139 53 23 156 34 205 20 35 -10 37 -9 42 16 3 15 8 72 11 128 l7 101 -47 7 c-59 8 -107 6 -162 -4z"/>
<path d="M10820 5500 c-128 -22 -257 -112 -308 -213 -23 -46 -44 -132 -34 -142 3 -3 59 -5 124 -5 l118 0 11 28 c27 72 100 111 204 112 128 0 195 -53 203 -160 l4 -60 -179 0 c-196 0 -264 -11 -342 -57 -149 -87 -210 -227 -166 -379 14 -48 27 -69 75 -116 79 -78 156 -102 303 -96 88 3 111 8 167 34 36 17 86 47 113 67 l47 37 0 -60 0 -60 121 0 120 0 -3 388 c-3 377 -4 389 -26 444 -29 71 -103 155 -171 191 -90 50 -252 69 -381 47z m324 -635 c14 -38 -18 -121 -68 -173 -64 -68 -172 -98 -265 -72 -118 32 -149 174 -49 226 56 29 79 32 229 33 122 1 148 -2 153 -14z"/>
<path d="M8542 5103 c3 -375 4 -390 26 -444 61 -154 179 -236 352 -246 108 -7 195 14 270 65 30 20 57 38 60 40 3 1 4 -18 2 -43 l-4 -45 133 0 134 0 0 530 0 530 -132 0 -133 0 0 -336 c0 -369 -3 -390 -57 -453 -45 -54 -103 -74 -191 -69 -88 5 -139 36 -173 105 -24 47 -24 53 -27 401 l-3 352 -130 0 -130 0 3 -387z"/>
<path d="M5110 5257 c-62 -18 -112 -50 -159 -103 -66 -75 -74 -110 -79 -351 l-4 -213 244 0 c215 0 248 3 284 19 88 40 107 95 103 287 -4 121 -7 145 -27 186 -67 135 -228 213 -362 175z"/>
</g>
</svg>                      
